<svg width="11" height="10" viewBox="0 0 11 10" fill="none" xmlns="http://www.w3.org/2000/svg">
<path d="M8.22206 0.633224L7.65052 1.20476L7.79947 1.3537L6.8935 2.25967L7.45194 2.83081L8.35869 1.91174L8.92944 2.48288L8.01076 3.38844L8.58191 3.94727L9.48787 3.04131L9.63681 3.19025L10.2083 2.61871L8.22206 0.633224ZM6.03759 2.02335L5.46605 2.59488L5.72699 2.85543L1.78024 6.8145L1.64361 6.95073L1.66864 7.1374L1.80487 8.40321L1.81758 8.53944L1.85452 8.56446L0.564087 9.85529H1.69366L2.50072 9.04862L3.70417 9.17254L3.89084 9.19756L4.02708 9.06093L7.98654 5.11378L8.24708 5.37473L8.81823 4.80359L6.03759 2.02335ZM6.29814 3.42618L7.4154 4.54304L3.60488 8.36587L2.66158 8.25427L2.58691 8.1796L2.4753 7.2363L6.29814 3.42618Z" fill="#195557"/>
</svg>
