<svg width="10" height="9" viewBox="0 0 10 9" fill="#195557" xmlns="http://www.w3.org/2000/svg">
<path d="M9.69364 2.06522C9.55287 1.73927 9.34988 1.44389 9.09606 1.19563C8.84204 0.946629 8.54255 0.74875 8.21387 0.612755C7.87304 0.471177 7.50749 0.398709 7.13843 0.399559C6.62067 0.399559 6.11551 0.54134 5.67651 0.809148C5.57149 0.873212 5.47172 0.943577 5.3772 1.02024C5.28268 0.943577 5.18291 0.873212 5.07788 0.809148C4.63889 0.54134 4.13373 0.399559 3.61596 0.399559C3.24313 0.399559 2.88185 0.470974 2.54053 0.612755C2.21076 0.749285 1.91354 0.945678 1.65834 1.19563C1.40418 1.44361 1.20115 1.73906 1.06076 2.06522C0.914776 2.40445 0.84021 2.76467 0.84021 3.1354C0.84021 3.48513 0.911626 3.84956 1.05341 4.22029C1.17208 4.53011 1.34222 4.85148 1.55962 5.176C1.90409 5.68956 2.37775 6.22518 2.96587 6.76815C3.94049 7.66819 4.90565 8.28993 4.94661 8.31513L5.19551 8.47477C5.30578 8.54513 5.44756 8.54513 5.55784 8.47477L5.80674 8.31513C5.8477 8.28888 6.81181 7.66819 7.78747 6.76815C8.3756 6.22518 8.84926 5.68956 9.19373 5.176C9.41113 4.85148 9.58232 4.53011 9.69994 4.22029C9.84172 3.84956 9.91314 3.48513 9.91314 3.1354C9.91419 2.76467 9.83962 2.40445 9.69364 2.06522ZM5.3772 7.64404C5.3772 7.64404 1.63838 5.24846 1.63838 3.1354C1.63838 2.06522 2.52373 1.19773 3.61596 1.19773C4.38368 1.19773 5.04953 1.62623 5.3772 2.25216C5.70487 1.62623 6.37072 1.19773 7.13843 1.19773C8.23067 1.19773 9.11601 2.06522 9.11601 3.1354C9.11601 5.24846 5.3772 7.64404 5.3772 7.64404Z" fill="#195557"/>
</svg>
