<svg width="24" height="24" viewBox="0 0 24 24" fill="none" xmlns="http://www.w3.org/2000/svg">
<path d="M13.1171 0.066173L0.36753 11.1924C0.252163 11.293 0.15964 11.4173 0.0962285 11.557C0.0328172 11.6967 -5.31162e-07 11.8484 -5.2445e-07 12.002C-5.17738e-07 12.1555 0.0328172 12.3073 0.0962286 12.447C0.15964 12.5866 0.252163 12.711 0.36753 12.8116L13.1171 23.9344C13.1555 23.968 13.2027 23.9898 13.2531 23.9972C13.3035 24.0046 13.355 23.9972 13.4013 23.9761C13.4477 23.9549 13.487 23.9207 13.5146 23.8777C13.5422 23.8346 13.557 23.7845 13.557 23.7333L13.557 21.0179C13.557 20.8637 13.4904 20.7162 13.3737 20.6123L4.96403 13.2742L23.7333 13.2742C23.88 13.2742 24 13.1535 24 13.006L24 10.9946C24 10.8471 23.88 10.7264 23.7333 10.7264L4.96403 10.7264L13.3737 3.38828C13.4904 3.28772 13.557 3.14022 13.557 2.98266L13.557 0.267309C13.557 0.0393537 13.2904 -0.0846811 13.1171 0.066173Z" fill="#70908B"/>
</svg>
