<svg width="20" height="19" viewBox="0 0 20 19" fill="none" xmlns="http://www.w3.org/2000/svg">
<path d="M15.8655 0.0720215L14.6963 1.24121L15.001 1.5459L13.1476 3.39921L14.29 4.56758L16.145 2.68746L17.3125 3.85583L15.4332 5.70833L16.6016 6.85152L18.4549 4.99821L18.7596 5.3029L19.9288 4.13371L15.8655 0.0720215ZM11.3967 2.91577L10.2275 4.08496L10.7613 4.61796L2.68752 12.717L2.40802 12.9956L2.45921 13.3775L2.7379 15.967L2.7639 16.2456L2.83946 16.2968L0.199646 18.9375H2.5104L4.1614 17.2873L6.62327 17.5408L7.00515 17.592L7.28383 17.3125L15.3836 9.23783L15.9166 9.77165L17.085 8.60327L11.3967 2.91577ZM11.9297 5.78552L14.2153 8.07027L6.42015 15.8906L4.49046 15.6623L4.33771 15.5095L4.1094 13.5798L11.9297 5.78552Z" fill="white"/>
</svg>
