<svg width="20" height="18" viewBox="0 0 20 18" fill="none" xmlns="http://www.w3.org/2000/svg">
<path d="M18.8301 4.09298C18.5421 3.42619 18.1269 2.82194 17.6076 2.31408C17.088 1.8047 16.4753 1.3999 15.8029 1.12169C15.1057 0.832071 14.3579 0.683824 13.6029 0.685562C12.5438 0.685562 11.5104 0.975601 10.6123 1.52345C10.3975 1.65451 10.1934 1.79845 10 1.95529C9.80664 1.79845 9.60254 1.65451 9.3877 1.52345C8.48965 0.975601 7.45625 0.685562 6.39707 0.685562C5.63438 0.685562 4.89531 0.831656 4.19707 1.12169C3.52246 1.40099 2.91445 1.80275 2.39238 2.31408C1.87245 2.82137 1.45712 3.42576 1.16992 4.09298C0.871289 4.78693 0.71875 5.52384 0.71875 6.28224C0.71875 6.99767 0.864844 7.74318 1.15488 8.50157C1.39766 9.13536 1.7457 9.79278 2.19043 10.4567C2.89512 11.5072 3.86406 12.6029 5.06719 13.7137C7.06094 15.5549 9.03535 16.8268 9.11914 16.8783L9.62832 17.2049C9.85391 17.3488 10.1439 17.3488 10.3695 17.2049L10.8787 16.8783C10.9625 16.8246 12.9348 15.5549 14.9307 13.7137C16.1338 12.6029 17.1027 11.5072 17.8074 10.4567C18.2521 9.79278 18.6023 9.13536 18.843 8.50157C19.133 7.74318 19.2791 6.99767 19.2791 6.28224C19.2813 5.52384 19.1287 4.78693 18.8301 4.09298ZM10 15.5055C10 15.5055 2.35156 10.6049 2.35156 6.28224C2.35156 4.09298 4.1627 2.31837 6.39707 2.31837C7.96758 2.31837 9.32969 3.19494 10 4.4754C10.6703 3.19494 12.0324 2.31837 13.6029 2.31837C15.8373 2.31837 17.6484 4.09298 17.6484 6.28224C17.6484 10.6049 10 15.5055 10 15.5055Z" fill="white"/>
<path d="M13.6029 2.31836C12.0324 2.31836 10.6703 3.19492 10 4.47539C9.32969 3.19492 7.96758 2.31836 6.39707 2.31836C4.1627 2.31836 2.35156 4.09297 2.35156 6.28223C2.35156 10.6049 10 15.5055 10 15.5055C10 15.5055 17.6484 10.6049 17.6484 6.28223C17.6484 4.09297 15.8373 2.31836 13.6029 2.31836Z" fill="black" fill-opacity="0.1"/>
</svg>
