<svg width="202" height="44" viewBox="0 0 202 44" fill="none" xmlns="http://www.w3.org/2000/svg">
<path d="M25.0377 34.3523C25.0377 34.278 25.1106 34.2408 25.2564 34.2408C25.3657 34.2408 25.4568 34.278 25.5297 34.3523C25.639 34.3895 25.6937 34.4267 25.6937 34.4639C25.3292 37.3638 25.147 40.0034 25.147 42.3828C25.147 42.6802 25.0924 42.9033 24.983 43.052C24.8737 43.1635 24.655 43.2193 24.327 43.2193H0.164002C0.0546674 43.2193 0 43.1077 0 42.8847C0 42.6616 0.0546674 42.5501 0.164002 42.5501C1.33024 42.5501 2.16847 42.4571 2.6787 42.2712C3.22538 42.0853 3.58983 41.7322 3.77205 41.2117C3.95428 40.654 4.04539 39.8175 4.04539 38.7022V12.8821C4.04539 11.7668 3.95428 10.9489 3.77205 10.4284C3.58983 9.9079 3.22538 9.55471 2.6787 9.36882C2.13203 9.14575 1.2938 9.03422 0.164002 9.03422C0.0546674 9.03422 0 8.92269 0 8.69962C0 8.47655 0.0546674 8.36502 0.164002 8.36502H23.343C23.7074 8.36502 23.8897 8.53232 23.8897 8.86692L23.999 16.2839C23.999 16.3583 23.8897 16.414 23.671 16.4512C23.4888 16.4884 23.3794 16.4512 23.343 16.3397C22.7599 14.1834 21.7759 12.5847 20.391 11.5437C19.006 10.5027 17.1838 9.98226 14.9242 9.98226H13.2842C12.1908 9.98226 11.389 10.2239 10.8788 10.7072C10.3686 11.1905 10.1135 11.9341 10.1135 12.9379V24.3143H14.6509C16.7647 24.3143 18.3865 23.9425 19.5163 23.199C20.6461 22.4554 21.211 21.4144 21.211 20.076C21.211 19.9645 21.3021 19.9087 21.4843 19.9087C21.703 19.9087 21.8123 19.9645 21.8123 20.076L21.7576 25.0951L21.8123 27.7719C21.8852 29.0359 21.9216 30.0397 21.9216 30.7833C21.9216 30.8576 21.8123 30.8948 21.5936 30.8948C21.375 30.8948 21.2656 30.8576 21.2656 30.7833C21.2656 29.259 20.6825 28.0693 19.5163 27.2142C18.3865 26.3219 16.7465 25.8758 14.5962 25.8758H10.1135V38.4791C10.1135 39.5572 10.3139 40.3566 10.7148 40.8771C11.1157 41.3975 11.7535 41.6578 12.6282 41.6578H14.4322C17.2749 41.6578 19.5527 41.063 21.2656 39.8733C22.9785 38.6836 24.2359 36.8433 25.0377 34.3523Z" fill="#195557"/>
<path d="M84.0106 42.5501C84.1199 42.5501 84.1746 42.6616 84.1746 42.8847C84.1746 43.1077 84.1199 43.2193 84.0106 43.2193H75.5918C75.1545 43.2193 74.7536 43.0706 74.3891 42.7731C74.0611 42.4757 73.4416 41.695 72.5304 40.4309C71.6558 39.1297 70.2526 36.9362 68.3211 33.8504C66.7539 31.3223 65.533 29.5192 64.6583 28.4411C63.7836 27.3629 62.9272 26.6379 62.089 26.2662C61.2507 25.8572 60.1392 25.6527 58.7542 25.6527V38.7022C58.7542 39.8175 58.8454 40.654 59.0276 41.2117C59.2463 41.7322 59.6471 42.0853 60.2303 42.2712C60.8134 42.4571 61.7427 42.5501 63.0183 42.5501C63.0912 42.5501 63.1276 42.6616 63.1276 42.8847C63.1276 43.1077 63.0912 43.2193 63.0183 43.2193C61.6698 43.2193 60.6129 43.2007 59.8476 43.1635L55.4742 43.1077L51.4835 43.1635C50.791 43.2007 49.807 43.2193 48.5314 43.2193C48.4585 43.2193 48.4221 43.1077 48.4221 42.8847C48.4221 42.6616 48.4585 42.5501 48.5314 42.5501C49.807 42.5501 50.7364 42.4571 51.3195 42.2712C51.9026 42.0853 52.3035 41.7322 52.5222 41.2117C52.7408 40.654 52.8502 39.8175 52.8502 38.7022V25.6527C51.4653 25.6527 50.3537 25.8572 49.5155 26.2662C48.6772 26.6379 47.8208 27.3629 46.9461 28.4411C46.0714 29.5192 44.8505 31.3223 43.2834 33.8504C41.3518 36.9362 39.9304 39.1297 39.0193 40.4309C38.1446 41.695 37.5251 42.4757 37.1606 42.7731C36.8326 43.0706 36.4499 43.2193 36.0126 43.2193H27.5938C27.4845 43.2193 27.4298 43.1077 27.4298 42.8847C27.4298 42.6616 27.4845 42.5501 27.5938 42.5501C28.5778 42.5129 29.4889 42.1783 30.3272 41.5463C31.1654 40.9142 31.9854 40.0777 32.7872 39.0368C33.589 37.9586 34.7552 36.2856 36.2859 34.0177L37.1059 32.7351C38.4544 30.6903 39.5842 29.1289 40.4953 28.0507C41.4429 26.9725 42.3722 26.1918 43.2834 25.7085C44.1945 25.2252 45.2878 24.9092 46.5634 24.7605L39.0193 15.2801C37.3793 13.2353 35.6664 11.6924 33.8806 10.6515C32.1312 9.5733 30.3454 9.03422 28.5232 9.03422C28.4503 9.03422 28.4138 8.92269 28.4138 8.69962C28.4138 8.47655 28.4503 8.36502 28.5232 8.36502L30.8739 8.42079C32.4045 8.49514 33.8806 8.53232 35.3019 8.53232C36.3953 8.53232 37.8895 8.49514 39.7846 8.42079L43.3927 8.36502C43.4656 8.36502 43.502 8.47655 43.502 8.69962C43.502 8.92269 43.4656 9.03422 43.3927 9.03422C42.3358 9.03422 41.534 9.27588 40.9873 9.75919C40.4771 10.2053 40.222 10.8373 40.222 11.6553C40.222 13.1052 41.042 15.0199 42.682 17.3992L47.8208 24.6489H49.1328C50.627 24.6489 51.8662 24.6675 52.8502 24.7047V12.8821C52.8502 11.7668 52.7408 10.9489 52.5222 10.4284C52.3035 9.9079 51.9026 9.55471 51.3195 9.36882C50.7364 9.14575 49.8252 9.03422 48.5861 9.03422C48.5132 9.03422 48.4768 8.92269 48.4768 8.69962C48.4768 8.47655 48.5132 8.36502 48.5861 8.36502L51.5928 8.42079C53.1964 8.49514 54.4902 8.53232 55.4742 8.53232C56.604 8.53232 58.08 8.49514 59.9023 8.42079L63.0183 8.36502C63.0912 8.36502 63.1276 8.47655 63.1276 8.69962C63.1276 8.92269 63.0912 9.03422 63.0183 9.03422C61.7792 9.03422 60.8681 9.14575 60.2849 9.36882C59.7018 9.59189 59.3009 9.98226 59.0823 10.5399C58.8636 11.0604 58.7542 11.8783 58.7542 12.9937V24.7047C59.7018 24.6675 60.9409 24.6489 62.4716 24.6489H63.7836L68.7584 17.6781C70.4713 15.2615 71.3278 13.2539 71.3278 11.6553C71.3278 10.8373 71.0726 10.2053 70.5624 9.75919C70.0522 9.27588 69.2868 9.03422 68.2664 9.03422C68.157 9.03422 68.1024 8.92269 68.1024 8.69962C68.1024 8.47655 68.157 8.36502 68.2664 8.36502L71.8198 8.42079C73.7149 8.49514 75.2091 8.53232 76.3025 8.53232C77.7238 8.53232 79.1999 8.49514 80.7306 8.42079L83.0813 8.36502C83.1541 8.36502 83.1906 8.47655 83.1906 8.69962C83.1906 8.92269 83.1541 9.03422 83.0813 9.03422C81.259 9.03422 79.455 9.5733 77.6692 10.6515C75.9198 11.6924 74.2251 13.2353 72.5851 15.2801L65.041 24.7605C66.353 24.9092 67.4464 25.2252 68.3211 25.7085C69.2322 26.1918 70.1433 26.9725 71.0544 28.0507C71.9655 29.0917 73.1136 30.6531 74.4985 32.7351L75.3185 34.0177C76.8492 36.2856 78.0154 37.9586 78.8172 39.0368C79.619 40.0777 80.439 40.9142 81.2772 41.5463C82.1155 42.1783 83.0266 42.5129 84.0106 42.5501Z" fill="#195557"/>
<path d="M123.572 42.5501C123.681 42.5501 123.736 42.6616 123.736 42.8847C123.736 43.1077 123.681 43.2193 123.572 43.2193C122.296 43.2193 121.276 43.2007 120.51 43.1635L116.301 43.1077L111.381 43.1635C110.725 43.2007 109.832 43.2193 108.702 43.2193C108.593 43.2193 108.538 43.1077 108.538 42.8847C108.538 42.6616 108.593 42.5501 108.702 42.5501C110.051 42.5501 111.035 42.4571 111.654 42.2712C112.274 42.0853 112.693 41.7322 112.912 41.2117C113.13 40.6912 113.24 39.8547 113.24 38.7022V15.8935L91.3728 43.8327C91.2634 43.9442 90.9901 44 90.5527 44C89.8603 44 89.5141 43.8699 89.5141 43.6096V12.8821C89.5141 11.7668 89.4047 10.9489 89.1861 10.4284C88.9674 9.9079 88.5665 9.55471 87.9834 9.36882C87.4003 9.14575 86.4891 9.03422 85.25 9.03422C85.1407 9.03422 85.086 8.92269 85.086 8.69962C85.086 8.47655 85.1407 8.36502 85.25 8.36502L88.3114 8.42079C90.1336 8.49514 91.5368 8.53232 92.5208 8.53232C93.9786 8.53232 95.6186 8.49514 97.4408 8.42079L100.12 8.36502C100.229 8.36502 100.284 8.47655 100.284 8.69962C100.284 8.92269 100.229 9.03422 100.12 9.03422C98.7711 9.03422 97.7871 9.14575 97.1675 9.36882C96.548 9.55471 96.1288 9.9079 95.9102 10.4284C95.6915 10.9489 95.5822 11.7668 95.5822 12.8821V35.9138L117.449 7.97465C117.558 7.86312 117.832 7.80735 118.269 7.80735C118.524 7.80735 118.761 7.84453 118.98 7.91888C119.198 7.99324 119.308 8.08618 119.308 8.19772V38.7022C119.308 39.8175 119.417 40.654 119.636 41.2117C119.854 41.7322 120.255 42.0853 120.839 42.2712C121.422 42.4571 122.333 42.5501 123.572 42.5501Z" fill="#195557"/>
<path d="M162.257 42.5501C162.367 42.5501 162.421 42.6616 162.421 42.8847C162.421 43.1077 162.367 43.2193 162.257 43.2193H153.838C153.365 43.2193 152.927 43.0706 152.526 42.7731C152.162 42.4757 151.506 41.7136 150.558 40.4867C149.611 39.2226 148.062 37.0106 145.912 33.8504L144.436 31.7313C143.16 29.8352 142.212 28.5154 141.593 27.7719C140.973 26.9911 140.317 26.452 139.625 26.1546C138.969 25.82 138.094 25.6527 137.001 25.6527V38.7022C137.001 39.8175 137.092 40.654 137.274 41.2117C137.493 41.7322 137.894 42.0853 138.477 42.2712C139.06 42.4571 139.971 42.5501 141.21 42.5501C141.32 42.5501 141.374 42.6616 141.374 42.8847C141.374 43.1077 141.32 43.2193 141.21 43.2193C139.935 43.2193 138.914 43.2007 138.149 43.1635L133.611 43.1077L129.621 43.1635C128.892 43.2007 127.908 43.2193 126.669 43.2193C126.559 43.2193 126.505 43.1077 126.505 42.8847C126.505 42.6616 126.559 42.5501 126.669 42.5501C127.908 42.5501 128.819 42.4571 129.402 42.2712C129.985 42.0853 130.386 41.7322 130.605 41.2117C130.823 40.654 130.933 39.8175 130.933 38.7022V12.8821C130.933 11.7668 130.823 10.9489 130.605 10.4284C130.386 9.9079 129.985 9.55471 129.402 9.36882C128.855 9.14575 127.963 9.03422 126.723 9.03422C126.614 9.03422 126.559 8.92269 126.559 8.69962C126.559 8.47655 126.614 8.36502 126.723 8.36502L129.621 8.42079C131.297 8.49514 132.627 8.53232 133.611 8.53232C134.851 8.53232 136.381 8.49514 138.204 8.42079L141.21 8.36502C141.32 8.36502 141.374 8.47655 141.374 8.69962C141.374 8.92269 141.32 9.03422 141.21 9.03422C140.008 9.03422 139.115 9.14575 138.532 9.36882C137.948 9.59189 137.548 9.98226 137.329 10.5399C137.11 11.0604 137.001 11.8783 137.001 12.9937V24.7047C137.985 24.6675 139.224 24.6489 140.718 24.6489L146.458 16.6185C147.953 14.4994 148.7 12.7334 148.7 11.3207C148.7 10.6143 148.499 10.0566 148.098 9.64765C147.697 9.2387 147.151 9.03422 146.458 9.03422C146.385 9.03422 146.349 8.92269 146.349 8.69962C146.349 8.47655 146.385 8.36502 146.458 8.36502L148.973 8.42079C150.577 8.49514 151.998 8.53232 153.237 8.53232C154.658 8.53232 156.134 8.49514 157.665 8.42079L160.016 8.36502C160.125 8.36502 160.18 8.47655 160.18 8.69962C160.18 8.92269 160.125 9.03422 160.016 9.03422C158.412 9.03422 156.608 9.62906 154.604 10.8188C152.599 12.0084 150.905 13.4956 149.52 15.2801L142.085 24.7047C143.506 24.779 144.673 25.0579 145.584 25.5412C146.495 25.9873 147.388 26.7123 148.262 27.7161C149.173 28.7199 150.449 30.3929 152.089 32.7351L153.073 34.1293C154.604 36.2856 155.788 37.9028 156.626 38.981C157.501 40.0591 158.394 40.9142 159.305 41.5463C160.216 42.1783 161.2 42.5129 162.257 42.5501Z" fill="#195557"/>
<path d="M201.836 42.5501C201.945 42.5501 202 42.6616 202 42.8847C202 43.1077 201.945 43.2193 201.836 43.2193C200.56 43.2193 199.54 43.2007 198.775 43.1635L194.565 43.1077L189.645 43.1635C188.989 43.2007 188.096 43.2193 186.966 43.2193C186.857 43.2193 186.802 43.1077 186.802 42.8847C186.802 42.6616 186.857 42.5501 186.966 42.5501C188.315 42.5501 189.299 42.4571 189.918 42.2712C190.538 42.0853 190.957 41.7322 191.176 41.2117C191.395 40.6912 191.504 39.8547 191.504 38.7022V15.8935L169.637 43.8327C169.528 43.9442 169.254 44 168.817 44C168.124 44 167.778 43.8699 167.778 43.6096V12.8821C167.778 11.7668 167.669 10.9489 167.45 10.4284C167.232 9.9079 166.831 9.55471 166.247 9.36882C165.664 9.14575 164.753 9.03422 163.514 9.03422C163.405 9.03422 163.35 8.92269 163.35 8.69962C163.35 8.47655 163.405 8.36502 163.514 8.36502L166.576 8.42079C168.398 8.49514 169.801 8.53232 170.785 8.53232C172.243 8.53232 173.883 8.49514 175.705 8.42079L178.384 8.36502C178.493 8.36502 178.548 8.47655 178.548 8.69962C178.548 8.92269 178.493 9.03422 178.384 9.03422C177.035 9.03422 176.051 9.14575 175.432 9.36882C174.812 9.55471 174.393 9.9079 174.174 10.4284C173.956 10.9489 173.846 11.7668 173.846 12.8821V35.9138L195.713 7.97465C195.823 7.86312 196.096 7.80735 196.533 7.80735C196.788 7.80735 197.025 7.84453 197.244 7.91888C197.463 7.99324 197.572 8.08618 197.572 8.19772V38.7022C197.572 39.8175 197.681 40.654 197.9 41.2117C198.119 41.7322 198.52 42.0853 199.103 42.2712C199.686 42.4571 200.597 42.5501 201.836 42.5501Z" fill="#195557"/>
<path d="M7.61151 0.464723C7.9622 -0.154908 8.83893 -0.154907 9.18962 0.464724L10.7677 3.25306C11.1184 3.87269 10.6801 4.64723 9.97867 4.64723H6.82245C6.12106 4.64723 5.6827 3.87269 6.03339 3.25306L7.61151 0.464723Z" fill="#195557"/>
<path d="M18.545 0.464723C18.8957 -0.154908 19.7724 -0.154907 20.1231 0.464724L21.7012 3.25306C22.0519 3.87269 21.6135 4.64723 20.9122 4.64723H17.7559C17.0546 4.64723 16.6162 3.87269 16.9669 3.25306L18.545 0.464723Z" fill="#195557"/>
</svg>
